<svg xmlns="http://www.w3.org/2000/svg" width="192" height="192">
  <path fill="black" fill-rule="nonzero" d="m95.757 35.25-.78.002q-16.488.064-25.583 2.866-9.31 2.868-13.225 9.647-3.915 6.78-3.915 19.12 0 9.386 3.306 15.47t11.224 10.516q6.681 3.74 18.131 7.419 1.935.62 4.004 1.24l.4.12q11.658 3.476 18.01 6.517t9.135 6.692q2.784 3.651 2.784 8.865 0 5.736-2.088 8.778t-6.96 4.259-13.747 1.043q-8.875-.175-13.747-1.825-4.873-1.651-7.048-5.476t-2.697-10.95l-21.586 9.133q.667 8.175 3.315 13.463 4.003 7.996 13.834 11.298 9.831 3.303 27.929 3.303l.786-.001q17.002-.065 26.273-2.954 9.483-2.955 13.486-10.081Q141 136.586 141 123.55q0-10.429-3.306-17.12-3.306-6.693-11.05-11.386-7.108-4.308-19.711-8.468-1.13-.374-2.302-.744l-.746-.235-1.12-.355-1.094-.35q-9.194-2.96-14.794-5.31l-.43-.182q-6.525-2.781-9.484-5.562t-2.958-6.258q0-5.388 1.914-8.17 1.915-2.78 6.352-3.997t12.79-1.217l.61.002q7.564.048 11.832 1.302 4.437 1.305 6.438 4.345 2.001 3.042 2.523 8.778l21.634-9.12q-.873-6.785-3.362-11.217-4.003-7.126-13.138-10.081T95.757 35.25"/>
  <path fill="black" fill-rule="nonzero" d="M192 69.26v87.5c0 19.462-15.778 35.24-35.24 35.24H35.24C15.779 192 0 176.222 0 156.76v-6.51l23.494-9.91m145.012-93.575V35.24c0-6.488-5.259-11.747-11.746-11.747H35.24c-6.487 0-11.746 5.259-11.746 11.747v72.694L0 117.845m0 0V35.241C0 15.778 15.778 0 35.24 0h121.52C176.222 0 192 15.778 192 35.24v1.615l-23.494 9.91M23.494 140.34v16.42c0 6.487 5.26 11.746 11.747 11.746H156.76c6.487 0 11.746-5.259 11.746-11.747V79.17L192 69.26"/>
</svg>
