<svg width="32" height="32" xmlns="http://www.w3.org/2000/svg"><style>@media (prefers-color-scheme:dark){.srcfav{fill:#fff}}</style><g id="Favicon" stroke="none" stroke-width="1" fill="none" fill-rule="evenodd"><g id="transparent" fill="#000" fill-rule="nonzero"><path d="M28 0a4 4 0 0 1 4 4v24a4 4 0 0 1-4 4H4a4 4 0 0 1-4-4V4a4 4 0 0 1 4-4h24Zm0 2H4a2 2 0 0 0-2 2v24a2 2 0 0 0 2 2h24a2 2 0 0 0 2-2V4a2 2 0 0 0-2-2Z" class="srcfav" id="Rectangle"/><path d="M16.363 26.582c-2.183 0-3.866-.2-5.052-.598-1.185-.399-2.02-1.08-2.502-2.046-.483-.965-.692-2.329-.63-4.091h3.935c.063.86.225 1.52.488 1.982.262.462.687.793 1.274.992.588.2 1.417.31 2.487.33 1.07.021 1.899-.042 2.486-.188.588-.147 1.007-.404 1.259-.772.252-.367.378-.897.378-1.589 0-.63-.168-1.164-.504-1.605-.336-.44-.886-.845-1.652-1.212-.766-.367-1.852-.76-3.258-1.18-1.762-.525-3.12-1.054-4.076-1.59-.954-.535-1.631-1.17-2.03-1.904-.398-.734-.598-1.668-.598-2.8 0-1.49.236-2.645.709-3.463.472-.818 1.269-1.4 2.391-1.747 1.123-.346 2.712-.519 4.769-.519 2.014 0 3.572.178 4.674.535 1.101.357 1.893.965 2.376 1.826.482.86.713 2.087.692 3.682h-3.997c-.063-.692-.215-1.222-.456-1.59-.242-.367-.63-.629-1.165-.786-.535-.158-1.285-.236-2.25-.236-1.007 0-1.778.073-2.313.22-.536.147-.918.388-1.15.724-.23.336-.345.829-.345 1.48 0 .419.178.796.535 1.132.356.336.928.672 1.715 1.007.787.336 1.883.724 3.289 1.165 1.72.545 3.048 1.101 3.981 1.668.934.566 1.6 1.254 1.999 2.061.399.808.598 1.842.598 3.1 0 1.574-.241 2.791-.724 3.651-.483.86-1.296 1.47-2.44 1.826-1.143.357-2.774.535-4.893.535Z" class="srcfav" id="s"/></g></g></svg>