<?xml version="1.0" encoding="UTF-8"?>
<svg width="48px" height="48px" viewBox="0 0 48 48" version="1.1" xmlns="http://www.w3.org/2000/svg" xmlns:xlink="http://www.w3.org/1999/xlink">
    <title>48 Slice</title>
    <g id="Favicon" stroke="none" stroke-width="1" fill="none" fill-rule="evenodd">
        <g id="48" fill="#121a1b" fill-rule="nonzero">
            <g id="Cutbox-32">
                <path d="M23.9391843,8.8125 L23.7441932,8.81287892 C20.9963131,8.82361491 18.8644017,9.06249075 17.348459,9.52950644 C15.7968471,10.0075107 14.6947676,10.811427 14.0422206,11.9412554 C13.3896735,13.0710837 13.0634,14.6644313 13.0634,16.7212983 C13.0634,18.285676 13.3389198,19.5748391 13.8899596,20.5887876 C14.4409993,21.6027361 15.3763168,22.4790773 16.6959119,23.2178112 C17.8093922,23.8411581 19.3203785,24.4593484 21.2288708,25.072382 C21.5512258,25.1759261 21.8848286,25.2792954 22.2297657,25.3825177 L22.3295682,25.4122854 C24.2727084,25.9916845 25.7735666,26.5348712 26.8321429,27.0418455 C27.8907193,27.5488197 28.6520242,28.1064914 29.1160576,28.7148605 C29.5800911,29.3232296 29.8121078,30.0619635 29.8121078,30.9310622 C29.8121078,31.8870708 29.6380953,32.6185622 29.2900702,33.1255365 C28.9420451,33.6325107 28.3620033,33.9873927 27.5499447,34.1901824 C26.7378861,34.3929721 25.5923035,34.479882 24.1131968,34.450912 C22.6340902,34.4219421 21.4885076,34.2698498 20.676449,33.9946352 C19.8643904,33.7194206 19.2770981,33.2631438 18.9145719,32.6258047 C18.5520458,31.9884657 18.3272796,31.075912 18.2402733,29.8881438 L12.84375,32.1716226 C12.9551212,33.5341925 13.2313525,34.6560801 13.6724439,35.5372854 C14.339492,36.8699034 15.4923251,37.811427 17.1309433,38.3618562 C18.7695615,38.9122854 21.0969793,39.1875 24.1131968,39.1875 L24.3096502,39.1871269 C27.143412,39.1763085 29.3328401,38.9301882 30.8779347,38.4487661 C32.4585487,37.9562768 33.5823797,37.1161481 34.2494278,35.9283798 C34.9164759,34.7406116 35.25,33.0603541 35.25,30.8876073 C35.25,29.1494099 34.9744801,27.7226395 34.4234404,26.6072961 C33.8724007,25.4919528 32.9515842,24.5431867 31.6609912,23.7609979 C30.4764651,23.043093 28.8338593,22.3373901 26.7331737,21.643889 C26.5450116,21.5817713 26.3532638,21.5197799 26.1578443,21.4578863 L25.9711339,21.3992379 L25.6913865,21.31062 L25.4178575,21.223055 C23.8854786,20.7298357 22.65262,20.2873264 21.7192818,19.8955271 L21.6117665,19.8500536 C20.524188,19.3865343 19.733881,18.923015 19.2408455,18.4594957 C18.7478099,17.9959764 18.5012921,17.4745172 18.5012921,16.895118 C18.5012921,15.9970494 18.6608036,15.3162554 18.9798266,14.8527361 C19.2988496,14.3892167 19.8281378,14.0560622 20.5676912,13.8532725 C21.3072445,13.6504828 22.3730714,13.549088 23.7651717,13.549088 L23.9177867,13.5495701 C25.178584,13.5576054 26.1645371,13.666082 26.8756461,13.875 C27.6151994,14.0922747 28.1517381,14.4543991 28.4852621,14.9613734 C28.8187862,15.4683476 29.0290514,16.1998391 29.1160576,17.1558476 L34.5246002,14.8759301 C34.3789692,13.7450761 34.0987315,12.8103061 33.6838871,12.0716202 C33.016839,10.8838519 31.92201,10.0437232 30.3994002,9.55123391 C28.8767904,9.05874464 26.7233851,8.8125 23.9391843,8.8125 Z" id="Path"></path>
                <path d="M48,17.3149526 L48,39.1898734 C48,44.055572 44.0555797,48 39.1898906,48 L8.81020286,48 C3.94451378,48 0,44.055572 0,39.1898734 L0,37.5625475 L5.87340629,35.0849779 M42.1265937,11.6911551 L42.1265937,8.81012658 C42.1265937,7.18822706 40.8117869,5.87341772 39.1898906,5.87341772 L8.81020286,5.87341772 C7.1883065,5.87341772 5.87349972,7.18822706 5.87349972,8.81012658 L5.87340629,26.9837121 L0,29.4612817 M0,29.4612817 L0,8.81012658 C0,3.94442803 3.94451378,0 8.81020286,0 L39.1898906,0 C44.0555797,0 48,3.94442803 48,8.81012658 L48,9.21368678 L42.1265003,11.6911551 M5.87340629,35.0849779 L5.87340629,39.1898734 C5.87340629,40.8117729 7.1883065,42.1265823 8.81020286,42.1265823 L39.1898906,42.1265823 C40.8117869,42.1265823 42.1265937,40.8117729 42.1265937,39.1898734 L42.1265003,19.792421 L48,17.3149526" id="Shape"></path>
            </g>
        </g>
    </g>
</svg>