<?xml version="1.0" encoding="UTF-8"?>
<svg width="243px" height="74px" viewBox="0 0 243 74" version="1.1" xmlns="http://www.w3.org/2000/svg" xmlns:xlink="http://www.w3.org/1999/xlink">
    <title>Combined Shape</title>
    <g id="Logotype-Dark-Mode" stroke="none" stroke-width="1" fill="none" fill-rule="evenodd">
        <path d="M243,0 L243,74 L0,74 L0,0 L243,0 Z M20.2004615,38.99 C17.6564615,38.99 15.7004615,39.368 14.3324615,40.124 C12.9644615,40.88 11.9924615,42.158 11.4164615,43.958 C10.8404615,45.758 10.5524615,48.314 10.5524615,51.626 C10.5524615,54.914 10.8404615,57.446 11.4164615,59.222 C11.9924615,60.998 12.9644615,62.264 14.3324615,63.02 C15.7004615,63.776 17.6564615,64.154 20.2004615,64.154 C22.3604615,64.154 24.0344615,63.944 25.2224615,63.524 C26.4104615,63.104 27.2804615,62.384 27.8324615,61.364 C28.3844615,60.344 28.7204615,58.898 28.8404615,57.026 L24.3404615,57.026 C24.1484615,58.274 23.7644615,59.12 23.1884615,59.564 C22.6124615,60.008 21.6164615,60.23 20.2004615,60.23 C18.8804615,60.23 17.8604615,59.972 17.1404615,59.456 C16.4204615,58.94 15.9104615,58.07 15.6104615,56.846 C15.3104615,55.622 15.1604615,53.882 15.1604615,51.626 C15.1604615,49.346 15.3104615,47.582 15.6104615,46.334 C15.9104615,45.086 16.4204615,44.204 17.1404615,43.688 C17.8604615,43.172 18.8804615,42.914 20.2004615,42.914 C21.0644615,42.914 21.7544615,43.016 22.2704615,43.22 C22.7864615,43.424 23.1824615,43.772 23.4584615,44.264 C23.7344615,44.756 23.9564615,45.446 24.1244615,46.334 L28.6244615,46.334 C28.5524615,44.414 28.2524615,42.932 27.7244615,41.888 C27.1964615,40.844 26.3444615,40.1 25.1684615,39.656 C23.9924615,39.212 22.3364615,38.99 20.2004615,38.99 Z M62.5133024,38.99 C60.0083024,38.99 58.0778024,39.368 56.7218024,40.124 C55.3658024,40.88 54.4058024,42.158 53.8418024,43.958 C53.2778024,45.758 52.9958024,48.326 52.9958024,51.662 C52.9958024,54.95 53.2778024,57.482 53.8418024,59.258 C54.4058024,61.034 55.3658024,62.294 56.7218024,63.038 C58.0778024,63.782 60.0038024,64.154 62.4998024,64.154 C64.9958024,64.154 66.9218024,63.782 68.2778024,63.038 C69.6338024,62.294 70.5938024,61.034 71.1578024,59.258 C71.7218024,57.482 72.0038024,54.95 72.0038024,51.662 C72.0038024,48.326 71.7218024,45.758 71.1578024,43.958 C70.5938024,42.158 69.6316461,40.88 68.2713336,40.124 C66.9110211,39.368 64.9916774,38.99 62.5133024,38.99 Z M40.9136319,38.99 C38.4086319,38.99 36.4781319,39.368 35.1221319,40.124 C33.7661319,40.88 32.8061319,42.158 32.2421319,43.958 C31.6781319,45.758 31.3961319,48.326 31.3961319,51.662 C31.3961319,54.95 31.6781319,57.482 32.2421319,59.258 C32.8061319,61.034 33.7661319,62.294 35.1221319,63.038 C36.4781319,63.782 38.4041319,64.154 40.9001319,64.154 C43.3961319,64.154 45.3221319,63.782 46.6781319,63.038 C48.0341319,62.294 48.9941319,61.034 49.5581319,59.258 C50.1221319,57.482 50.4041319,54.95 50.4041319,51.662 C50.4041319,48.326 50.1221319,45.758 49.5581319,43.958 C48.9941319,42.158 48.0319757,40.88 46.6716632,40.124 C45.3113507,39.368 43.3920069,38.99 40.9136319,38.99 Z M190.577825,39.35 L177.581825,39.35 L177.581825,43.346 L181.829825,43.346 L181.829825,59.834 L177.329825,59.834 L177.329825,63.83 L190.829825,63.83 L190.829825,59.834 L186.329825,59.834 L186.329825,43.346 L190.577825,43.346 L190.577825,39.35 Z M232.145166,39.35 L216.953166,39.35 L216.953166,63.83 L232.865166,63.83 L232.865166,59.87 L221.561166,59.87 L221.561166,53.102 L230.705166,53.102 L230.705166,49.142 L221.561166,49.142 L221.561166,43.31 L232.145166,43.31 L232.145166,39.35 Z M150.102484,39.35 L143.694484,39.35 L136.746484,63.83 L141.246484,63.83 L142.794484,58.43 L151.074484,58.43 L152.658484,63.83 L157.194484,63.83 L150.102484,39.35 Z M174.354154,39.35 L156.642154,39.35 L156.642154,43.454 L163.194154,43.454 L163.194154,63.83 L167.802154,63.83 L167.802154,43.454 L174.354154,43.454 L174.354154,39.35 Z M198.081495,39.35 L193.581495,39.35 L200.853495,63.83 L206.505495,63.83 L213.777495,39.35 L209.277495,39.35 L203.769495,58.43 L203.589495,58.43 L198.081495,39.35 Z M127.736814,39.656 C125.996814,39.26 123.518814,39.122 120.302814,39.242 L116.018814,39.386 L116.018814,63.83 L120.590814,63.83 L120.590814,53.822 L122.894814,53.822 C124.382814,53.822 125.438814,54.008 126.062814,54.38 C126.686814,54.752 127.118814,55.466 127.358814,56.522 L129.050814,63.83 L133.982814,63.83 L131.930814,56.198 C131.546814,54.782 131.108814,53.786 130.616814,53.21 C130.124814,52.634 129.374814,52.262 128.366814,52.094 L128.366814,51.77 C129.470814,51.602 130.328814,51.332 130.940814,50.96 C131.552814,50.588 131.984814,50.036 132.236814,49.304 C132.488814,48.572 132.602814,47.558 132.578814,46.262 C132.554814,44.318 132.176814,42.83 131.444814,41.798 C130.712814,40.766 129.476814,40.052 127.736814,39.656 Z M111.547143,39.35 L96.3551432,39.35 L96.3551432,63.83 L112.267143,63.83 L112.267143,59.87 L100.963143,59.87 L100.963143,53.102 L110.107143,53.102 L110.107143,49.142 L100.963143,49.142 L100.963143,43.31 L111.547143,43.31 L111.547143,39.35 Z M81.6514728,39.242 L76.0354728,39.35 L76.0354728,63.83 L80.6434728,63.83 L80.6434728,54.902 L83.2714728,54.902 C85.8634728,54.902 87.8674728,54.668 89.2834728,54.2 C90.6994728,53.732 91.7014728,52.946 92.2894728,51.842 C92.8774728,50.738 93.1714728,49.166 93.1714728,47.126 C93.1714728,45.062 92.8294728,43.466 92.1454728,42.338 C91.4614728,41.21 90.2974728,40.412 88.6534728,39.944 C87.0094728,39.476 84.6754728,39.242 81.6514728,39.242 Z M62.4998024,42.95 C63.7931774,42.95 64.7905836,43.2070625 65.4920211,43.7211875 C66.1934586,44.2353125 66.6921149,45.1113125 66.9879899,46.3491875 C67.2838649,47.5870625 67.4318024,49.358 67.4318024,51.662 C67.4318024,53.894 67.2818024,55.616 66.9818024,56.828 C66.6818024,58.04 66.1835211,58.904 65.4869586,59.42 C64.7903961,59.936 63.7997399,60.194 62.5149899,60.194 C61.2088649,60.194 60.2013336,59.9364687 59.4923961,59.4214062 C58.7834586,58.9063437 58.2794586,58.0444062 57.9803961,56.8355937 C57.6813336,55.6267812 57.5318024,53.8975625 57.5318024,51.6479375 C57.5318024,49.3773125 57.6813336,47.61875 57.9803961,46.37225 C58.2794586,45.12575 58.7834586,44.24375 59.4923961,43.72625 C60.2013336,43.20875 61.2038024,42.95 62.4998024,42.95 Z M40.9001319,42.95 C42.1935069,42.95 43.1909132,43.2070625 43.8923507,43.7211875 C44.5937882,44.2353125 45.0924444,45.1113125 45.3883194,46.3491875 C45.6841944,47.5870625 45.8321319,49.358 45.8321319,51.662 C45.8321319,53.894 45.6821319,55.616 45.3821319,56.828 C45.0821319,58.04 44.5838507,58.904 43.8872882,59.42 C43.1907257,59.936 42.2000694,60.194 40.9153194,60.194 C39.6091944,60.194 38.6016632,59.9364687 37.8927257,59.4214062 C37.1837882,58.9063437 36.6797882,58.0444062 36.3807257,56.8355937 C36.0816632,55.6267812 35.9321319,53.8975625 35.9321319,51.6479375 C35.9321319,49.3773125 36.0816632,47.61875 36.3807257,46.37225 C36.6797882,45.12575 37.1837882,44.24375 37.8927257,43.72625 C38.6016632,43.20875 39.6041319,42.95 40.9001319,42.95 Z M146.898484,43.526 L150.030484,54.434 L143.874484,54.434 L146.862484,43.526 L146.898484,43.526 Z M82.2634728,43.238 C83.9194728,43.238 85.1974728,43.352 86.0974728,43.58 C86.9974728,43.808 87.6394728,44.186 88.0234728,44.714 C88.4074728,45.242 88.5994728,45.998 88.5994728,46.982 C88.5994728,48.014 88.4314728,48.806 88.0954728,49.358 C87.7594728,49.91 87.1834728,50.306 86.3674728,50.546 C85.5514728,50.786 84.3994728,50.906 82.9114728,50.906 L80.6434728,50.906 L80.6434728,43.238 Z M121.886814,43.182 L122.534814,43.184 C123.182814,43.196 124.058814,43.238 125.162814,43.31 C125.930814,43.358 126.518814,43.478 126.926814,43.67 C127.334814,43.862 127.622814,44.162 127.790814,44.57 C127.958814,44.978 128.042814,45.542 128.042814,46.262 C128.042814,47.606 127.844814,48.536 127.448814,49.052 C127.052814,49.568 126.314814,49.826 125.234814,49.826 L120.590814,49.826 L120.590814,43.238 C121.238814,43.19 121.886814,43.172 122.534814,43.184 Z M106.599143,9.99 C104.055143,9.99 102.099143,10.368 100.731143,11.124 C99.3631432,11.88 98.3911432,13.158 97.8151432,14.958 C97.2391432,16.758 96.9511432,19.314 96.9511432,22.626 C96.9511432,25.914 97.2391432,28.446 97.8151432,30.222 C98.3911432,31.998 99.3631432,33.264 100.731143,34.02 C102.099143,34.776 104.055143,35.154 106.599143,35.154 C108.759143,35.154 110.433143,34.944 111.621143,34.524 C112.809143,34.104 113.679143,33.384 114.231143,32.364 C114.783143,31.344 115.119143,29.898 115.239143,28.026 L110.739143,28.026 C110.547143,29.274 110.163143,30.12 109.587143,30.564 C109.011143,31.008 108.015143,31.23 106.599143,31.23 C105.279143,31.23 104.259143,30.972 103.539143,30.456 C102.819143,29.94 102.309143,29.07 102.009143,27.846 C101.709143,26.622 101.559143,24.882 101.559143,22.626 C101.559143,20.346 101.709143,18.582 102.009143,17.334 C102.309143,16.086 102.819143,15.204 103.539143,14.688 C104.259143,14.172 105.279143,13.914 106.599143,13.914 C107.463143,13.914 108.153143,14.016 108.669143,14.22 C109.185143,14.424 109.581143,14.772 109.857143,15.264 C110.133143,15.756 110.355143,16.446 110.523143,17.334 L115.023143,17.334 C114.951143,15.414 114.651143,13.932 114.123143,12.888 C113.595143,11.844 112.743143,11.1 111.567143,10.656 C110.391143,10.212 108.735143,9.99 106.599143,9.99 Z M40.9136319,9.99 C38.4086319,9.99 36.4781319,10.368 35.1221319,11.124 C33.7661319,11.88 32.8061319,13.158 32.2421319,14.958 C31.6781319,16.758 31.3961319,19.326 31.3961319,22.662 C31.3961319,25.95 31.6781319,28.482 32.2421319,30.258 C32.8061319,32.034 33.7661319,33.294 35.1221319,34.038 C36.4781319,34.782 38.4041319,35.154 40.9001319,35.154 C43.3961319,35.154 45.3221319,34.782 46.6781319,34.038 C48.0341319,33.294 48.9941319,32.034 49.5581319,30.258 C50.1221319,28.482 50.4041319,25.95 50.4041319,22.662 C50.4041319,19.326 50.1221319,16.758 49.5581319,14.958 C48.9941319,13.158 48.0319757,11.88 46.6716632,11.124 C45.3113507,10.368 43.3920069,9.99 40.9136319,9.99 Z M58.1798024,10.35 L53.5718024,10.35 L53.5718024,26.874 C53.5718024,29.04375 53.8478024,30.7141875 54.3998024,31.8853125 C54.9518024,33.0564375 55.8758024,33.894 57.1718024,34.398 C58.4678024,34.902 60.3077399,35.154 62.6916149,35.154 C64.9674899,35.154 66.7284899,34.902 67.9746149,34.398 C69.2207399,33.894 70.1078024,33.054 70.6358024,31.878 C71.1638024,30.702 71.4278024,29.022 71.4278024,26.838 L71.4278024,10.35 L66.8198024,10.35 L66.8198024,26.73 C66.8198024,27.890625 66.6938024,28.7807812 66.4418024,29.4004687 C66.1898024,30.0201562 65.7711149,30.462 65.1857399,30.726 C64.6003649,30.99 63.7650524,31.122 62.6798024,31.122 C61.5098024,31.122 60.6053024,30.99 59.9663024,30.726 C59.3273024,30.462 58.8698024,30.0147187 58.5938024,29.3841562 C58.3178024,28.7535937 58.1798024,27.856875 58.1798024,26.694 L58.1798024,10.35 Z M19.1803067,9.99 L19.018972,9.99031386 C16.7453898,9.99920662 14.981457,10.1970705 13.7271736,10.5839056 C12.4433777,10.9798426 11.5315227,11.6457368 10.9916085,12.581588 C10.4516944,13.5174392 10.1817373,14.8372294 10.1817373,16.5409585 C10.1817373,17.8367525 10.409701,18.9045827 10.8656286,19.7444492 C11.3215561,20.5843157 12.095433,21.3102003 13.1872595,21.922103 C14.1085475,22.4384292 15.3587299,22.9504841 16.9378069,23.4582677 C17.2045218,23.5440346 17.4805431,23.6296567 17.7659423,23.715157 L17.8485184,23.739814 C19.4562628,24.2197377 20.6980654,24.6696662 21.5739261,25.0895994 C22.4497869,25.5095327 23.0796867,25.9714592 23.4636257,26.4753791 C23.8475647,26.979299 24.0395341,27.5912017 24.0395341,28.3110873 C24.0395341,29.1029614 23.895557,29.708865 23.6076028,30.1287983 C23.3196486,30.5487315 22.8397249,30.8426848 22.1678317,31.0106581 C21.4959385,31.1786314 20.5480892,31.2506199 19.3242838,31.2266237 C18.1004783,31.2026276 17.152629,31.0766476 16.4807359,30.8486838 C15.8088427,30.6207201 15.3229199,30.2427802 15.0229676,29.7148641 C14.7230153,29.186948 14.5370449,28.4310682 14.4650563,27.4472246 L10,29.3386592 C10.092148,30.4672933 10.3207004,31.3965671 10.6856572,32.1264807 C11.2375694,33.2303052 12.1914178,34.0101812 13.5472022,34.4661087 C14.9029867,34.9220362 16.8286805,35.15 19.3242838,35.15 L19.4868283,35.149691 C21.8314686,35.1407299 23.6429904,34.9368653 24.9213939,34.5380973 C26.229186,34.1301621 27.1590382,33.4342728 27.7109504,32.4504292 C28.2628627,31.4665856 28.5388188,30.0748069 28.5388188,28.275093 C28.5388188,26.8353219 28.3108551,25.6535098 27.8549276,24.7296567 C27.399,23.8058035 26.6371212,23.0199285 25.5692909,22.3720315 C24.58922,21.7773817 23.2301362,21.192839 21.4920394,20.6184032 C21.3363551,20.5669504 21.177704,20.5156021 21.0160148,20.4643348 L20.8615316,20.4157556 L20.63007,20.3423523 L20.4037534,20.269821 C19.1358708,19.8612812 18.1158098,19.4947451 17.3435705,19.1702127 L17.2546128,19.1325465 C16.3547559,18.7486075 15.7008598,18.3646686 15.2929247,17.9807296 C14.8849895,17.5967907 14.681022,17.1648593 14.681022,16.6849356 C14.681022,15.9410539 14.813001,15.3771435 15.076959,14.9932046 C15.3409171,14.6092656 15.7788474,14.3333095 16.3907502,14.1653362 C17.0026529,13.9973629 17.8845127,13.9133763 19.0363296,13.9133763 L19.1626024,13.9137756 C20.2057797,13.9204313 21.0215524,14.0102839 21.6099204,14.1833333 C22.2218231,14.3633047 22.6657525,14.663257 22.9417087,15.0831903 C23.2176648,15.5031235 23.3916371,16.1090272 23.4636257,16.9009013 L27.9386267,15.0124165 C27.8181323,14.0757157 27.5862651,13.3014338 27.2430248,12.6895708 C26.6911126,11.7057272 25.7852566,11.0098379 24.5254569,10.6019027 C23.2656572,10.1939676 21.4839404,9.99 19.1803067,9.99 Z M87.5374728,10.656 C85.7974728,10.26 83.3194728,10.122 80.1034728,10.242 L75.8194728,10.386 L75.8194728,34.83 L80.3914728,34.83 L80.3914728,24.822 L82.6954728,24.822 C84.1834728,24.822 85.2394728,25.008 85.8634728,25.38 C86.4874728,25.752 86.9194728,26.466 87.1594728,27.522 L88.8514728,34.83 L93.7834728,34.83 L91.7314728,27.198 C91.3474728,25.782 90.9094728,24.786 90.4174728,24.21 C89.9254728,23.634 89.1754728,23.262 88.1674728,23.094 L88.1674728,22.77 C89.2714728,22.602 90.1294728,22.332 90.7414728,21.96 C91.3534728,21.588 91.7854728,21.036 92.0374728,20.304 C92.2894728,19.572 92.4034728,18.558 92.3794728,17.262 C92.3554728,15.318 91.9774728,13.83 91.2454728,12.798 C90.5134728,11.766 89.2774728,11.052 87.5374728,10.656 Z M135.146814,10.35 L119.954814,10.35 L119.954814,34.83 L135.866814,34.83 L135.866814,30.87 L124.562814,30.87 L124.562814,24.102 L133.706814,24.102 L133.706814,20.142 L124.562814,20.142 L124.562814,14.31 L135.146814,14.31 L135.146814,10.35 Z M40.9001319,13.95 C42.1935069,13.95 43.1909132,14.2070625 43.8923507,14.7211875 C44.5937882,15.2353125 45.0924444,16.1113125 45.3883194,17.3491875 C45.6841944,18.5870625 45.8321319,20.358 45.8321319,22.662 C45.8321319,24.894 45.6821319,26.616 45.3821319,27.828 C45.0821319,29.04 44.5838507,29.904 43.8872882,30.42 C43.1907257,30.936 42.2000694,31.194 40.9153194,31.194 C39.6091944,31.194 38.6016632,30.9364687 37.8927257,30.4214062 C37.1837882,29.9063437 36.6797882,29.0444063 36.3807257,27.8355938 C36.0816632,26.6267812 35.9321319,24.8975625 35.9321319,22.6479375 C35.9321319,20.3773125 36.0816632,18.61875 36.3807257,17.37225 C36.6797882,16.12575 37.1837882,15.24375 37.8927257,14.72625 C38.6016632,14.20875 39.6041319,13.95 40.9001319,13.95 Z M81.6874728,14.182 L82.3354728,14.184 C82.9834728,14.196 83.8594728,14.238 84.9634728,14.31 C85.7314728,14.358 86.3194728,14.478 86.7274728,14.67 C87.1354728,14.862 87.4234728,15.162 87.5914728,15.57 C87.7594728,15.978 87.8434728,16.542 87.8434728,17.262 C87.8434728,18.606 87.6454728,19.536 87.2494728,20.052 C86.8534728,20.568 86.1154728,20.826 85.0354728,20.826 L80.3914728,20.826 L80.3914728,14.238 C81.0394728,14.19 81.6874728,14.172 82.3354728,14.184 Z" id="Combined-Shape" fill="#EFEBEA"></path>
    </g>
</svg>