<svg width="237" height="48" viewBox="0 0 237 48" fill="none" xmlns="http://www.w3.org/2000/svg">
<path d="M79.5511 25.4164C81.1324 25.4164 82.3584 25.5804 83.229 25.9083C84.0996 26.2361 84.7303 26.7854 85.1212 27.5562C85.5121 28.3272 85.7345 29.4218 85.7878 30.8398H82.4562C82.3318 30.184 82.1674 29.6742 81.9631 29.3108C81.7587 28.9476 81.4651 28.6905 81.0832 28.5399C80.7012 28.3893 80.1905 28.3142 79.5511 28.3141C78.5738 28.3141 77.8183 28.505 77.2852 28.8861C76.7523 29.2671 76.375 29.9183 76.153 30.8398C75.9309 31.7614 75.8197 33.0641 75.8197 34.7479C75.8197 36.4138 75.9309 37.6987 76.153 38.6026C76.3751 39.5065 76.7522 40.1493 77.2852 40.5304C77.8183 40.9114 78.5738 41.1023 79.5511 41.1023C80.5991 41.1022 81.3363 40.9381 81.7628 40.6104C82.1892 40.2826 82.4738 39.6575 82.6159 38.736H85.9476C85.8587 40.1184 85.6101 41.1863 85.2014 41.9396C84.7927 42.6928 84.1483 43.2247 83.2688 43.5348C82.3893 43.8449 81.15 44 79.5511 44C77.6676 44 76.2194 43.7203 75.2065 43.162C74.1938 42.6037 73.4741 41.6688 73.0476 40.3573C72.6212 39.0457 72.4078 37.1759 72.4078 34.7479C72.4078 32.302 72.6212 30.4144 73.0476 29.0851C73.4741 27.7558 74.1937 26.812 75.2065 26.2537C76.2194 25.6954 77.6676 25.4164 79.5511 25.4164ZM94.8876 25.4164C96.7226 25.4164 98.1435 25.6954 99.1504 26.2537C100.157 26.812 100.869 27.7558 101.287 29.0851C101.704 30.4144 101.914 32.3109 101.914 34.7746C101.914 37.2027 101.704 39.0724 101.287 40.384C100.869 41.6955 100.159 42.6262 99.1548 43.1757C98.1509 43.725 96.7251 44 94.8774 44C93.0295 44 91.6033 43.7251 90.5994 43.1757C89.5955 42.6262 88.8848 41.6955 88.4672 40.384C88.0497 39.0724 87.8411 37.2026 87.8411 34.7746C87.8411 32.3109 88.0497 30.4144 88.4672 29.0851C88.8848 27.7558 89.5955 26.812 90.5994 26.2537C91.6033 25.6954 93.0327 25.4164 94.8876 25.4164ZM110.879 25.4164C112.714 25.4164 114.135 25.6954 115.142 26.2537C116.149 26.812 116.862 27.7559 117.279 29.0851C117.697 30.4144 117.905 32.311 117.905 34.7746C117.905 37.2026 117.697 39.0724 117.279 40.384C116.862 41.6955 116.151 42.6262 115.147 43.1757C114.143 43.7251 112.717 44 110.869 44C109.021 44 107.595 43.7251 106.591 43.1757C105.587 42.6262 104.876 41.6955 104.459 40.384C104.041 39.0724 103.833 37.2026 103.833 34.7746C103.833 32.311 104.041 30.4144 104.459 29.0851C104.877 27.7559 105.588 26.812 106.591 26.2537C107.594 25.6954 109.024 25.4164 110.879 25.4164ZM125.048 25.6025C127.287 25.6025 129.014 25.7754 130.231 26.121C131.448 26.4666 132.31 27.0558 132.816 27.8886C133.322 28.7217 133.576 29.9004 133.576 31.4246C133.576 32.9311 133.358 34.092 132.923 34.9073C132.488 35.7225 131.746 36.3033 130.697 36.6489C129.649 36.9945 128.165 37.1675 126.246 37.1675H124.3V43.7606H120.889V25.6818L125.048 25.6025ZM147.18 25.6818L147.181 28.6062H139.345V32.9132H146.116V35.8376H139.345V40.8361H147.714V43.7606H135.934V25.6818H147.18ZM153.663 25.6025C156.044 25.5139 157.879 25.6158 159.167 25.9083C160.455 26.2007 161.371 26.7278 161.913 27.4898C162.455 28.2519 162.734 29.3509 162.752 30.7864C162.77 31.7433 162.686 32.4923 162.499 33.0329C162.312 33.5734 161.993 33.9813 161.54 34.256C161.087 34.5307 160.451 34.7298 159.634 34.8539V35.0933C160.38 35.2174 160.935 35.4923 161.3 35.9176C161.664 36.343 161.988 37.0788 162.272 38.1245L163.792 43.7606H160.14L158.888 38.3639C158.71 37.5841 158.389 37.0563 157.927 36.7816C157.465 36.507 156.683 36.3698 155.582 36.3698H153.876V43.7606H150.491V25.7085L153.663 25.6025ZM175.725 25.6818L180.976 43.7606H177.618L176.445 39.7724H170.315L169.169 43.7606H165.837L170.981 25.6818H175.725ZM193.68 25.6818V28.713H188.83V43.7606H185.418V28.713H180.567V25.6818H193.68ZM205.692 25.6818V28.6329H202.547V40.8095H205.879V43.7606H195.884V40.8095H199.216V28.6329H196.07V25.6818H205.692ZM211.247 25.6818L215.325 39.7724H215.458L219.536 25.6818H222.868L217.484 43.7606H213.299L207.916 25.6818H211.247ZM236.466 25.6818V28.6062H228.63V32.9132H235.401V35.8376H228.63V40.8361H237V43.7606H225.219V25.6818H236.466ZM94.8774 28.3408C93.9179 28.3408 93.1752 28.5314 92.6506 28.9135C92.1254 29.296 91.7525 29.9477 91.5314 30.8679C91.3098 31.7885 91.1988 33.0876 91.1988 34.7645C91.1983 36.4254 91.3093 37.7024 91.5314 38.5954C91.7524 39.4874 92.1255 40.1238 92.6506 40.5044C93.1752 40.885 93.9214 41.0756 94.8883 41.0756C95.8393 41.0756 96.5726 40.8847 97.0884 40.5037C97.6042 40.1226 97.9732 39.4846 98.1953 38.5896C98.4174 37.6946 98.5286 36.4228 98.5286 34.7746C98.5286 33.0731 98.4188 31.7648 98.1997 30.8506C97.9805 29.9365 97.6112 29.2894 97.092 28.9099C96.5728 28.5304 95.8347 28.3409 94.8774 28.3408ZM110.869 28.3408C109.91 28.3408 109.168 28.5315 108.642 28.9135C108.118 29.296 107.745 29.9477 107.523 30.8679C107.302 31.7885 107.191 33.0876 107.191 34.7645C107.191 36.4254 107.302 37.7024 107.523 38.5954C107.744 39.4875 108.117 40.1238 108.642 40.5044C109.167 40.8849 109.913 41.0755 110.88 41.0756C111.831 41.0756 112.565 40.8847 113.081 40.5037C113.596 40.1226 113.965 39.4846 114.188 38.5896C114.41 37.6946 114.52 36.4228 114.52 34.7746C114.52 33.0731 114.411 31.7648 114.192 30.8506C113.973 29.9364 113.603 29.2894 113.084 28.9099C112.565 28.5303 111.826 28.3408 110.869 28.3408ZM173.328 28.7663L171.115 36.8213H175.673L173.354 28.7663H173.328ZM124.301 28.5536V34.2164H125.981C127.082 34.2164 127.935 34.1275 128.539 33.9502C129.143 33.773 129.57 33.4807 129.818 33.0733C130.067 32.6657 130.191 32.0806 130.191 31.3186C130.191 30.592 130.05 30.0332 129.766 29.6433C129.481 29.2534 129.005 28.9744 128.339 28.806C127.673 28.6377 126.726 28.5536 125.5 28.5536H124.301ZM155.317 28.5132C154.837 28.5043 154.356 28.5181 153.877 28.5536V33.4187H157.316C158.115 33.4187 158.662 33.2278 158.955 32.8468C159.248 32.4657 159.394 31.7788 159.394 30.7864C159.394 30.2549 159.332 29.8385 159.208 29.5373C159.083 29.236 158.87 29.0141 158.568 28.8723C158.266 28.7306 157.831 28.6417 157.262 28.6062C156.445 28.5531 155.796 28.5221 155.317 28.5132ZM94.8876 4C96.7226 4 98.1435 4.27902 99.1504 4.8373C100.157 5.39559 100.869 6.33943 101.287 7.66869C101.704 8.99798 101.914 10.8945 101.914 13.3581C101.914 15.7863 101.704 17.656 101.287 18.9675C100.869 20.2791 100.159 21.2098 99.1548 21.7593C98.1509 22.3086 96.7251 22.5836 94.8774 22.5836C93.0295 22.5836 91.6033 22.3087 90.5994 21.7593C89.5955 21.2098 88.8848 20.2791 88.4672 18.9675C88.0497 17.656 87.8411 15.7862 87.8411 13.3581C87.8411 10.8945 88.0497 8.99798 88.4672 7.66869C88.8848 6.33941 89.5955 5.3956 90.5994 4.8373C91.6033 4.27901 93.0327 4 94.8876 4ZM107.67 4.2654V16.3359C107.67 17.1948 107.773 17.8569 107.977 18.3221C108.072 18.5463 108.21 18.7498 108.385 18.9199C108.559 19.0901 108.766 19.2234 108.993 19.313C109.466 19.5079 110.136 19.6058 111.002 19.6058C111.805 19.6058 112.424 19.5079 112.857 19.313C113.291 19.1181 113.602 18.7921 113.788 18.3343C113.974 17.8765 114.068 17.2191 114.068 16.3626V4.2654H117.479V16.4419C117.479 18.0548 117.283 19.2955 116.892 20.164C116.502 21.0325 115.845 21.6532 114.922 22.0254C113.999 22.3975 112.695 22.5836 111.011 22.5836C109.246 22.5841 107.884 22.3981 106.924 22.0254C105.965 21.6527 105.281 21.0336 104.872 20.169C104.464 19.3045 104.259 18.0711 104.259 16.4686V4.2654H107.67ZM143.518 4C145.099 4 146.326 4.16396 147.197 4.49185C148.067 4.81973 148.698 5.36895 149.089 6.13977C149.48 6.91076 149.702 8.00542 149.755 9.42334H146.424C146.299 8.76755 146.135 8.25776 145.931 7.89442C145.726 7.5311 145.433 7.27411 145.051 7.12347C144.669 6.97284 144.157 6.89774 143.518 6.89774C142.541 6.89777 141.786 7.08861 141.253 7.46964C140.72 7.85072 140.342 8.50177 140.12 9.42334C139.898 10.345 139.786 11.6477 139.786 13.3315C139.786 14.9974 139.898 16.2823 140.12 17.1862C140.342 18.0901 140.72 18.7329 141.253 19.1139C141.786 19.495 142.541 19.6858 143.518 19.6858C144.566 19.6858 145.304 19.5218 145.73 19.194C146.157 18.8661 146.441 18.2411 146.583 17.3196H149.915C149.826 18.702 149.578 19.7699 149.169 20.5231C148.76 21.2764 148.116 21.8083 147.236 22.1184C146.357 22.4286 145.117 22.5836 143.518 22.5836C141.635 22.5836 140.187 22.3038 139.174 21.7456C138.161 21.1873 137.442 20.2524 137.015 18.9409C136.589 17.6293 136.375 15.7596 136.375 13.3315C136.375 10.8856 136.589 8.99798 137.015 7.66869C137.442 6.33944 138.161 5.39559 139.174 4.8373C140.187 4.27911 141.635 4.00003 143.518 4ZM78.7963 4C80.5016 4.00049 81.8212 4.15088 82.754 4.45219C83.6868 4.7535 84.3575 5.26817 84.7662 5.99481C85.0207 6.44668 85.1928 7.01806 85.2817 7.70907L81.9681 9.10457C81.9148 8.51976 81.7863 8.07188 81.582 7.76172C81.3777 7.45159 81.0489 7.22972 80.5959 7.09678C80.1605 6.96878 79.5564 6.90266 78.784 6.89774H78.69C77.8376 6.89774 77.1845 6.95973 76.7314 7.0838C76.2784 7.20788 75.9543 7.41184 75.7589 7.69537C75.5635 7.97889 75.4654 8.3952 75.4654 8.94447C75.4654 9.29895 75.6166 9.61862 75.9187 9.90221C76.2203 10.1857 76.7043 10.469 77.3705 10.7525L77.437 10.7799C78.0086 11.0197 78.7642 11.2909 79.7029 11.5927L79.87 11.6453L80.042 11.7001L80.1555 11.7355L80.5084 11.8494C81.795 12.2733 82.8014 12.705 83.5269 13.1447C84.3175 13.6232 84.8819 14.204 85.2195 14.8863C85.557 15.5682 85.7256 16.441 85.7256 17.5043C85.7256 18.8329 85.5211 19.8607 85.1125 20.5873C84.7038 21.314 84.0152 21.8279 83.0469 22.1292C82.1007 22.4236 80.7598 22.5745 79.024 22.5814H78.9033C77.0558 22.5814 75.6299 22.4126 74.626 22.0759C73.6221 21.7391 72.9157 21.1632 72.5076 20.3479C72.2371 19.8093 72.0681 19.1231 72 18.2896L75.3056 16.892C75.3584 17.6186 75.4966 18.1767 75.7192 18.5666C75.9418 18.9565 76.3016 19.2355 76.7986 19.4039C77.2956 19.5722 77.9972 19.6652 78.9033 19.683C79.8094 19.7007 80.5112 19.6476 81.0087 19.5236C81.5062 19.3995 81.8619 19.1825 82.0751 18.8723C82.2883 18.5622 82.3947 18.1143 82.3947 17.5295C82.3951 16.9974 82.2529 16.5453 81.9681 16.1737C81.6833 15.8021 81.217 15.4611 80.5691 15.151C79.921 14.8408 79.0013 14.5088 77.8108 14.1543L77.7494 14.1356C77.5387 14.0731 77.3339 14.0099 77.1355 13.9459C75.9674 13.5708 75.0417 13.1925 74.3592 12.8115C73.5514 12.3596 72.9789 11.8234 72.6413 11.2032C72.3037 10.5834 72.1345 9.79482 72.1345 8.83773C72.1345 7.57933 72.3348 6.60478 72.7346 5.91403C73.1338 5.22289 73.8086 4.73093 74.759 4.43848C75.6874 4.15295 76.9936 4.00691 78.677 4H78.7963ZM123.901 4.18607C126.282 4.09745 128.117 4.19941 129.405 4.49185C130.694 4.7843 131.609 5.31133 132.151 6.07342C132.693 6.83551 132.972 7.93443 132.99 9.36997C133.008 10.3269 132.924 11.0759 132.737 11.6165C132.551 12.157 132.231 12.5649 131.778 12.8396C131.325 13.1143 130.689 13.3134 129.872 13.4375V13.6769C130.618 13.801 131.173 14.0759 131.538 14.5012C131.902 14.9266 132.226 15.6624 132.511 16.7081L134.03 22.3442H130.378L129.126 16.9475C128.948 16.1677 128.628 15.6399 128.166 15.3652C127.704 15.0905 126.922 14.9534 125.821 14.9534H124.114V22.3442H120.73V4.29208L123.901 4.18607ZM164.654 4.2654V7.18982H156.818V11.4968H163.588V14.4212H156.818V19.4197H165.187V22.3442H153.406V4.2654H164.654ZM94.8774 6.92442C93.9179 6.92442 93.1752 7.11499 92.6506 7.49704C92.1254 7.87959 91.7525 8.53133 91.5314 9.45146C91.3098 10.3721 91.1988 11.6712 91.1988 13.348C91.1983 15.009 91.3093 16.286 91.5314 17.179C91.7524 18.071 92.1255 18.7074 92.6506 19.088C93.1752 19.4686 93.9214 19.6592 94.8883 19.6592C95.8393 19.6592 96.5726 19.4683 97.0884 19.0873C97.6042 18.7062 97.9732 18.0682 98.1953 17.1732C98.4174 16.2782 98.5286 15.0064 98.5286 13.3581C98.5286 11.6566 98.4188 10.3484 98.1997 9.43416C97.9805 8.52006 97.6112 7.87298 97.092 7.49344C96.5728 7.11403 95.8347 6.92446 94.8774 6.92442ZM125.554 7.09678C125.074 7.0879 124.593 7.10171 124.114 7.13717V12.0023H127.553C128.353 12.0023 128.899 11.8115 129.192 11.4304C129.485 11.0493 129.632 10.3624 129.632 9.36997C129.632 8.83844 129.57 8.42213 129.445 8.12087C129.321 7.81956 129.107 7.59773 128.805 7.45594C128.503 7.31422 128.068 7.22525 127.5 7.18982C126.682 7.13665 126.034 7.10565 125.554 7.09678Z" fill="#121A1B"/>
<g clip-path="url(#clip0_483_247)">
<path d="M23.9392 8.8125L23.7442 8.81288C20.9963 8.82361 18.8644 9.06249 17.3485 9.52951C15.7968 10.0075 14.6948 10.8114 14.0422 11.9413C13.3897 13.0711 13.0634 14.6644 13.0634 16.7213C13.0634 18.2857 13.3389 19.5748 13.89 20.5888C14.441 21.6027 15.3763 22.4791 16.6959 23.2178C17.8094 23.8412 19.3204 24.4593 21.2289 25.0724C21.5512 25.1759 21.8848 25.2793 22.2298 25.3825L22.3296 25.4123C24.2727 25.9917 25.7736 26.5349 26.8321 27.0418C27.8907 27.5488 28.652 28.1065 29.1161 28.7149C29.5801 29.3232 29.8121 30.062 29.8121 30.9311C29.8121 31.8871 29.6381 32.6186 29.2901 33.1255C28.942 33.6325 28.362 33.9874 27.5499 34.1902C26.7379 34.393 25.5923 34.4799 24.1132 34.4509C22.6341 34.4219 21.4885 34.2699 20.6764 33.9946C19.8644 33.7194 19.2771 33.2631 18.9146 32.6258C18.552 31.9885 18.3273 31.0759 18.2403 29.8881L12.8438 32.1716C12.9551 33.5342 13.2314 34.6561 13.6724 35.5373C14.3395 36.8699 15.4923 37.8114 17.1309 38.3619C18.7696 38.9123 21.097 39.1875 24.1132 39.1875L24.3097 39.1871C27.1434 39.1763 29.3328 38.9302 30.8779 38.4488C32.4585 37.9563 33.5824 37.1161 34.2494 35.9284C34.9165 34.7406 35.25 33.0604 35.25 30.8876C35.25 29.1494 34.9745 27.7226 34.4234 26.6073C33.8724 25.492 32.9516 24.5432 31.661 23.761C30.4765 23.0431 28.8339 22.3374 26.7332 21.6439C26.545 21.5818 26.3533 21.5198 26.1578 21.4579L25.9711 21.3992L25.6914 21.3106L25.4179 21.2231C23.8855 20.7298 22.6526 20.2873 21.7193 19.8955L21.6118 19.8501C20.5242 19.3865 19.7339 18.923 19.2408 18.4595C18.7478 17.996 18.5013 17.4745 18.5013 16.8951C18.5013 15.9971 18.6608 15.3163 18.9798 14.8527C19.2988 14.3892 19.8281 14.0561 20.5677 13.8533C21.3072 13.6505 22.3731 13.5491 23.7652 13.5491L23.9178 13.5496C25.1786 13.5576 26.1645 13.6661 26.8756 13.875C27.6152 14.0923 28.1517 14.4544 28.4853 14.9614C28.8188 15.4683 29.0291 16.1998 29.1161 17.1558L34.5246 14.8759C34.379 13.7451 34.0987 12.8103 33.6839 12.0716C33.0168 10.8839 31.922 10.0437 30.3994 9.55123C28.8768 9.05874 26.7234 8.8125 23.9392 8.8125Z" fill="#121A1B"/>
<path d="M48 17.315V39.1899C48 44.0556 44.0556 48 39.1899 48H8.8102C3.94451 48 0 44.0556 0 39.1899V37.5625L5.87341 35.085M42.1266 11.6912V8.81013C42.1266 7.18823 40.8118 5.87342 39.1899 5.87342H8.8102C7.18831 5.87342 5.8735 7.18823 5.8735 8.81013L5.87341 26.9837L0 29.4613M0 29.4613V8.81013C0 3.94443 3.94451 0 8.8102 0H39.1899C44.0556 0 48 3.94443 48 8.81013V9.21369L42.1266 11.6912M5.87341 35.085V39.1899C5.87341 40.8118 7.18831 42.1266 8.8102 42.1266H39.1899C40.8118 42.1266 42.1266 40.8118 42.1266 39.1899L42.1265 19.7924L48 17.315" fill="#121A1B"/>
</g>
<defs>
<clipPath id="clip0_483_247">
<rect width="48" height="48" fill="white"/>
</clipPath>
</defs>
</svg>
