<svg xmlns="http://www.w3.org/2000/svg" viewBox="0 0 166 43" class="w-auto h-2" data-v-87865c6b="" fill="white"><path d="M27.9016 42.5C35.7652 42.5 42 36.3052 42 28.4976C41.9879 20.7819 35.741 14.5169 28.042 14.5169C20.2945 14.5048 14.0016 20.7335 14.0016 28.4033C14.0016 36.073 20.2122 42.5 27.9016 42.5Z"></path><path d="M13.9992 0.5H0V14.4855H13.9992V0.5Z"></path><path d="M66.7321 37.6496L52.5517 0.5H49L65.1301 42.5H68.2153L84.2815 0.5H80.7918L66.7321 37.6496Z"></path><path d="M91.5713 0.5H88.3318V42.5H91.5713V0.5Z"></path><path d="M106.422 0.5H98.1159V42.5H106.422C122.802 42.5 130.765 35.6307 130.765 21.5C130.765 7.36931 122.802 0.5 106.422 0.5ZM101.355 3.61532H106.176C110.611 3.61532 116.253 3.95594 120.555 6.60645C125.121 9.42017 127.341 14.2918 127.341 21.4982C127.341 28.7046 125.121 33.5781 120.555 36.39C116.251 39.0405 110.609 39.3811 106.176 39.3811H101.355V3.61532Z"></path><path d="M149.247 0.782082L149.137 0.5H146.056L129.61 42.5H133.101L137.497 31.1688H157.633L162.092 42.5H165.645L149.247 0.782082ZM156.422 28.0535H138.711L147.596 5.32377L156.422 28.0535Z"></path></svg>
