<svg width="72" height="50" viewBox="0 0 72 50" fill="none" xmlns="http://www.w3.org/2000/svg">
<path d="M25.333 1.5C38.5146 1.5 49.167 12.04 49.167 25C49.167 37.96 38.5146 48.5 25.333 48.5C12.1516 48.4998 1.5 37.9599 1.5 25C1.5 12.0401 12.1516 1.50017 25.333 1.5Z" stroke="#2C3134" stroke-width="3"/>
<path d="M36 1.5C49.1816 1.5 59.834 12.04 59.834 25C59.834 37.96 49.1816 48.5 36 48.5C22.8186 48.4998 12.167 37.9599 12.167 25C12.167 12.0401 22.8186 1.50017 36 1.5Z" stroke="#2C3134" stroke-width="3"/>
<path d="M46.666 1.5C59.8476 1.5 70.5 12.04 70.5 25C70.5 37.96 59.8476 48.5 46.666 48.5C33.4846 48.4998 22.833 37.9599 22.833 25C22.833 12.0401 33.4846 1.50017 46.666 1.5Z" stroke="#56DB4D" stroke-width="3"/>
</svg>
