<svg width="72" height="50" viewBox="0 0 72 50" fill="none" xmlns="http://www.w3.org/2000/svg">
<path d="M25.333 1.5C38.5146 1.5 49.167 12.04 49.167 25C49.167 37.96 38.5146 48.5 25.333 48.5C12.1516 48.4998 1.5 37.9599 1.5 25C1.5 12.0401 12.1516 1.50017 25.333 1.5Z" stroke="#D3CED1" stroke-width="3"/>
<path d="M35.9995 1.5C49.1811 1.5 59.8335 12.04 59.8335 25C59.8335 37.96 49.1811 48.5 35.9995 48.5C22.8181 48.4998 12.1665 37.9599 12.1665 25C12.1665 12.0401 22.8181 1.50017 35.9995 1.5Z" stroke="#D3CED1" stroke-width="3"/>
<path d="M46.6665 1.5C59.8481 1.5 70.5005 12.04 70.5005 25C70.5005 37.96 59.8481 48.5 46.6665 48.5C33.4851 48.4998 22.8335 37.9599 22.8335 25C22.8335 12.0401 33.4851 1.50017 46.6665 1.5Z" stroke="#90EA8B" stroke-width="3"/>
</svg>
